<svg width="211" height="56" viewBox="0 0 211 56" fill="none" xmlns="http://www.w3.org/2000/svg">
<g clip-path="url(#clip0_1331_1987)">
<path d="M1.65708 43.2406C1.65708 43.2406 12.8561 45.1633 21.3376 36.3487C16.6994 43.1731 9.6094 51.0601 0 55.5C0 55.5 25.6447 47.4824 28.2295 23.9564C28.2295 23.9564 22.067 38.0711 1.65708 43.2406Z" fill="#1DA077"/>
<path d="M29.7537 22.3014C31.1072 22.3014 32.2056 21.203 32.2056 19.8495C32.2056 18.496 31.1072 17.3976 29.7537 17.3976C28.4002 17.3976 27.3018 18.496 27.3018 19.8495C27.3018 21.203 28.4002 22.3014 29.7537 22.3014Z" fill="#1DA077"/>
<path d="M25.5794 26.4104C25.5794 26.4104 28.8261 20.6443 23.857 0.5C23.857 0.5 25.6469 15.5424 23.2603 22.9634C23.2603 22.9634 17.2961 25.6809 10.4717 17.463C10.4717 17.463 17.2961 28.2635 25.5794 26.4083V26.4104Z" fill="#1DA077"/>
<path d="M51.1777 15.9029C53.5242 15.9029 55.3921 16.4405 56.7814 17.5157C58.1708 18.5909 58.8644 20.113 58.8644 22.0842H54.7807C54.728 21.1166 54.3991 20.3913 53.8004 19.9085C53.1995 19.4257 52.274 19.1833 51.0196 19.1833C50.1426 19.1833 49.4342 19.3751 48.8966 19.761C48.359 20.1468 48.0912 20.678 48.0912 21.359C48.0912 21.9135 48.2578 22.3183 48.5888 22.5691C48.9198 22.82 49.3899 23.0435 49.9992 23.2417C50.6085 23.4377 51.6753 23.7245 53.1974 24.1018C54.7913 24.4961 56.0183 24.9262 56.8784 25.3921C57.7386 25.858 58.3922 26.4525 58.8412 27.1799C59.2882 27.9051 59.5137 28.7969 59.5137 29.8531C59.5137 31.0717 59.1912 32.1553 58.5461 33.1041C57.9009 34.0528 56.9607 34.7738 55.7252 35.2671C54.4898 35.7605 53.092 36.005 51.5319 36.005C49.1496 36.005 47.1931 35.4084 45.6604 34.2172C44.1277 33.0261 43.3624 31.3901 43.3624 29.3134V29.1785H47.4461C47.4461 30.3064 47.8319 31.1813 48.6014 31.7991C49.371 32.4168 50.3935 32.7267 51.6647 32.7267C52.7926 32.7267 53.7034 32.5243 54.3928 32.1216C55.0822 31.7189 55.428 31.1223 55.428 30.3338C55.428 29.8152 55.2403 29.3746 54.8629 29.0162C54.4877 28.6578 53.9859 28.3668 53.3577 28.1434C52.7315 27.9199 51.6732 27.6374 50.1868 27.2958C48.4665 26.8658 47.2121 26.4083 46.4257 25.9255C45.6372 25.4427 45.0364 24.8545 44.6253 24.1651C44.2142 23.4757 44.0076 22.6471 44.0076 21.6795C44.0076 20.4799 44.3533 19.4321 45.0427 18.5361C45.7321 17.6401 46.6323 16.9781 47.7434 16.548C48.8544 16.1179 50.0013 15.9029 51.1819 15.9029H51.1777ZM65.7689 16.3603V26.6528L70.5799 21.6542H75.0937L69.8526 26.7603L75.684 35.5475H71.0627L67.2468 29.3408L65.7689 30.766V35.5496H61.953V16.3625H65.7689V16.3603ZM80.9525 16.3603V19.5037H77.1366V16.3603H80.9525ZM80.9525 21.6542V35.5475H77.1366V21.6542H80.9525ZM87.8844 16.3603V35.5475H84.0685V16.3603H87.8844ZM94.8185 16.3603V35.5475H91.0025V16.3603H94.8185ZM104.841 15.9029C107.188 15.9029 109.055 16.4405 110.445 17.5157C111.834 18.5909 112.528 20.113 112.528 22.0842H108.444C108.391 21.1166 108.062 20.3913 107.464 19.9085C106.863 19.4257 105.937 19.1833 104.683 19.1833C103.806 19.1833 103.098 19.3751 102.56 19.761C102.022 20.1468 101.755 20.678 101.755 21.359C101.755 21.9135 101.921 22.3183 102.252 22.5691C102.583 22.82 103.053 23.0435 103.663 23.2417C104.272 23.4377 105.339 23.7245 106.861 24.1018C108.455 24.4961 109.682 24.9262 110.542 25.3921C111.402 25.858 112.056 26.4525 112.502 27.1799C112.949 27.9051 113.175 28.7969 113.175 29.8531C113.175 31.0717 112.852 32.1553 112.207 33.1041C111.562 34.0528 110.622 34.7738 109.386 35.2671C108.151 35.7605 106.753 36.005 105.195 36.005C102.813 36.005 100.856 35.4084 99.3238 34.2172C97.7911 33.0261 97.0258 31.3901 97.0258 29.3134V29.1785H101.109C101.109 30.3064 101.495 31.1813 102.265 31.7991C103.034 32.4168 104.057 32.7267 105.328 32.7267C106.456 32.7267 107.367 32.5243 108.056 32.1216C108.746 31.7189 109.091 31.1223 109.091 30.3338C109.091 29.8152 108.904 29.3746 108.526 29.0162C108.151 28.6578 107.649 28.3668 107.021 28.1434C106.395 27.9199 105.337 27.6374 103.85 27.2958C102.13 26.8658 100.875 26.4083 100.087 25.9255C99.2985 25.4427 98.6977 24.8545 98.2865 24.1651C97.8754 23.4757 97.6688 22.6471 97.6688 21.6795C97.6688 20.4799 98.0146 19.4321 98.704 18.5361C99.3934 17.6401 100.294 16.9781 101.405 16.548C102.516 16.1179 103.663 15.9029 104.845 15.9029H104.841ZM119.084 16.3603V23.5895H119.165C119.595 22.8727 120.176 22.3077 120.912 21.8966C121.646 21.4855 122.426 21.2789 123.25 21.2789C125.023 21.2789 126.309 21.7258 127.106 22.6218C127.903 23.5179 128.302 24.9325 128.302 26.8679V35.5475H124.486V27.6479C124.486 26.52 124.302 25.6767 123.936 25.1222C123.569 24.5678 122.936 24.2895 122.04 24.2895C121.02 24.2895 120.271 24.5994 119.797 25.2171C119.323 25.8348 119.084 26.851 119.084 28.2677V35.5496H115.268V16.3625H119.084V16.3603ZM135.126 16.3603V19.5037H131.31V16.3603H135.126ZM135.126 21.6542V35.5475H131.31V21.6542H135.126ZM142.3 16.3603V26.6528L147.111 21.6542H151.625L146.386 26.7603L152.218 35.5475H147.596L143.78 29.3408L142.303 30.766V35.5496H138.487V16.3625H142.303L142.3 16.3603ZM159.257 21.2789C161.121 21.2789 162.575 21.6542 163.623 22.4068C164.671 23.1595 165.257 24.26 165.384 25.7125H161.755C161.701 25.0506 161.46 24.5699 161.03 24.2747C160.6 23.9796 159.974 23.832 159.15 23.832C158.433 23.832 157.899 23.9395 157.552 24.1545C157.202 24.3696 157.027 24.6921 157.027 25.1222C157.027 25.4448 157.143 25.7125 157.377 25.9276C157.608 26.1426 157.963 26.3303 158.437 26.4926C158.911 26.6528 159.436 26.7877 160.01 26.8953C161.747 27.2347 162.974 27.5847 163.691 27.9431C164.408 28.3015 164.933 28.7316 165.264 29.2333C165.595 29.7351 165.761 30.3528 165.761 31.0865C165.761 32.6445 165.192 33.842 164.055 34.6747C162.917 35.5075 161.372 35.9249 159.419 35.9249C157.467 35.9249 155.787 35.4864 154.651 34.6072C153.512 33.7302 152.926 32.5369 152.89 31.0338H156.518C156.518 31.7506 156.797 32.3198 157.351 32.7393C157.906 33.161 158.606 33.3718 159.447 33.3718C160.164 33.3718 160.76 33.2158 161.235 32.9017C161.709 32.5875 161.947 32.1532 161.947 31.5988C161.947 31.2404 161.8 30.9452 161.504 30.7112C161.209 30.4793 160.792 30.2727 160.254 30.0935C159.717 29.9143 158.884 29.7077 157.756 29.4758C156.86 29.2966 156.063 29.0541 155.365 28.7505C154.667 28.4469 154.134 28.0464 153.767 27.5552C153.4 27.0618 153.217 26.4589 153.217 25.7421C153.217 24.8292 153.436 24.0323 153.875 23.3513C154.313 22.6703 154.986 22.1559 155.89 21.806C156.795 21.456 157.918 21.281 159.263 21.281L159.257 21.2789ZM171.808 16.3603V23.5895H171.888C172.318 22.8727 172.9 22.3077 173.635 21.8966C174.369 21.4855 175.149 21.2789 175.973 21.2789C177.746 21.2789 179.032 21.7258 179.829 22.6218C180.626 23.5179 181.025 24.9325 181.025 26.8679V35.5475H177.209V27.6479C177.209 26.52 177.025 25.6767 176.659 25.1222C176.292 24.5678 175.659 24.2895 174.763 24.2895C173.743 24.2895 172.994 24.5994 172.52 25.2171C172.046 25.8348 171.808 26.851 171.808 28.2677V35.5496H167.992V16.3625H171.808V16.3603ZM186.399 21.6542L189.542 31.1666H189.595L192.631 21.6542H196.582L190.778 37.2932C190.366 38.3852 189.797 39.1821 189.072 39.6839C188.347 40.1857 187.339 40.4366 186.049 40.4366C185.494 40.4366 184.695 40.3923 183.658 40.3016V37.1582C184.339 37.2468 185.011 37.2932 185.673 37.2932C186.211 37.2932 186.628 37.1266 186.924 36.7956C187.219 36.4646 187.366 36.0472 187.366 35.5454C187.366 35.2587 187.314 34.972 187.206 34.6852L182.315 21.6521H186.399V21.6542ZM204.268 21.2789C208.316 21.2958 210.342 22.6134 210.342 25.2298V32.5918C210.342 33.9537 210.502 34.9382 210.825 35.5475H206.954C206.811 35.1174 206.722 34.6705 206.686 34.2046C205.558 35.3515 203.998 35.9249 202.01 35.9249C200.56 35.9249 199.409 35.5581 198.557 34.8223C197.705 34.0886 197.281 33.0661 197.281 31.759C197.281 30.4519 197.684 29.5011 198.492 28.8032C199.316 28.0696 200.811 27.6036 202.98 27.4055C204.521 27.2452 205.497 27.0428 205.908 26.8004C206.32 26.5579 206.526 26.1869 206.526 25.6851C206.526 25.059 206.339 24.5931 205.961 24.2874C205.586 23.9838 204.958 23.8299 204.081 23.8299C203.275 23.8299 202.666 23.9964 202.253 24.3274C201.842 24.6584 201.599 25.1918 201.527 25.9255H197.712C197.8 24.4033 198.428 23.248 199.592 22.4595C200.756 21.671 202.316 21.2768 204.268 21.2768V21.2789ZM201.097 31.5967C201.097 32.7794 201.877 33.3697 203.435 33.3697C205.478 33.3528 206.507 32.3029 206.526 30.2263V28.7484C206.22 29.052 205.451 29.2776 204.216 29.4209C203.14 29.5453 202.352 29.7667 201.85 30.0787C201.348 30.3929 201.097 30.8988 201.097 31.5967Z" fill="#1DA077"/>
<path d="M48.3927 45.9728L47.0287 53.9315H51.0196L51.1777 53.0228H48.1419L49.3478 45.9749H48.3927V45.9728ZM54.1272 54.0432C54.688 54.0432 55.1813 53.9188 55.6051 53.6679C56.0288 53.417 56.3788 53.0987 56.6507 52.7129L55.9339 52.247C55.7442 52.5189 55.5017 52.7466 55.2066 52.93C54.9178 53.105 54.5973 53.1915 54.241 53.1915C53.9227 53.1915 53.6613 53.1261 53.4568 52.9975C53.2523 52.8605 53.1005 52.6707 53.0014 52.4283C52.9023 52.1858 52.8538 51.9096 52.8538 51.5976C52.8538 51.2856 52.9002 51.0221 52.9908 50.7564C53.0899 50.4845 53.2248 50.2441 53.3998 50.0396C53.5748 49.8351 53.7793 49.6749 54.0133 49.5632C54.2558 49.4409 54.5214 49.3819 54.8081 49.3819C55.0949 49.3819 55.3204 49.4346 55.5018 49.54C55.6831 49.6454 55.8201 49.7972 55.9108 49.9954C56.0098 50.1851 56.0583 50.417 56.0583 50.689C56.0583 50.7944 56.0436 50.9019 56.0119 51.0073C55.9824 51.1064 55.9466 51.2013 55.9086 51.2919L56.2607 50.7691H52.5101V51.5428H56.8637C56.8932 51.4817 56.9206 51.3847 56.9438 51.2477C56.9733 51.1106 56.9902 50.9862 56.9902 50.8724C56.9902 50.3727 56.9037 49.9553 56.7288 49.6222C56.5538 49.2807 56.3071 49.0235 55.9909 48.8485C55.681 48.6735 55.3057 48.587 54.8651 48.587C54.4244 48.587 54.0618 48.6693 53.7055 48.8379C53.3577 49.0045 53.0499 49.2322 52.7842 49.521C52.527 49.8014 52.3225 50.1282 52.1707 50.4992C52.0274 50.864 51.9557 51.2498 51.9557 51.6588C51.9557 52.1584 52.0463 52.5864 52.2276 52.9427C52.409 53.299 52.664 53.5709 52.9887 53.7607C53.3134 53.9504 53.6929 54.0453 54.1251 54.0453L54.1272 54.0432ZM62.3704 48.7009L61.4955 53.9293H62.3262L63.2348 48.7009H62.3704ZM57.6184 51.3151C57.551 51.8084 57.591 52.2617 57.7428 52.6792C57.8946 53.0882 58.1371 53.417 58.4702 53.6679C58.8117 53.9104 59.227 54.0326 59.7204 54.0326C60.0682 54.0326 60.3866 53.9652 60.6754 53.8281C60.9705 53.6848 61.2278 53.4866 61.4491 53.2378C61.6684 52.987 61.8497 52.7002 61.9952 52.3735C62.1385 52.0404 62.2376 51.6883 62.2903 51.3172C62.3367 50.9609 62.3367 50.6236 62.2903 50.3053C62.2524 49.9785 62.1659 49.6875 62.0289 49.4303C61.8919 49.1731 61.7021 48.9686 61.4597 48.8168C61.2256 48.665 60.9326 48.5892 60.5847 48.5892C60.0914 48.5807 59.6339 48.6988 59.2102 48.9412C58.7927 49.1837 58.4407 49.5126 58.1539 49.93C57.8735 50.339 57.6943 50.8007 57.6205 51.3172L57.6184 51.3151ZM58.5271 51.3151C58.5882 50.9588 58.7168 50.6363 58.9129 50.3495C59.1174 50.0607 59.3683 49.8372 59.6634 49.6791C59.9586 49.5126 60.2727 49.4324 60.6079 49.4409C60.8356 49.4493 61.0317 49.5062 61.1982 49.6117C61.3732 49.7107 61.5166 49.8457 61.6304 50.0207C61.7443 50.1956 61.8244 50.3917 61.8687 50.611C61.915 50.8302 61.9172 51.0663 61.8792 51.3151C61.8328 51.5723 61.7464 51.8148 61.6178 52.0425C61.4955 52.2702 61.3458 52.4704 61.1624 52.6454C60.9811 52.812 60.7787 52.9448 60.5594 53.0439C60.3465 53.1345 60.1272 53.1809 59.8996 53.1809C59.5665 53.1809 59.2861 53.0987 59.0584 52.93C58.8391 52.7551 58.6831 52.5295 58.5924 52.247C58.5018 51.9581 58.4786 51.6482 58.525 51.3151H58.5271ZM65.6972 48.7009H64.7991L63.8905 53.9293H64.7991L65.6972 48.7009ZM67.0739 49.6897L67.6769 48.9623C67.5399 48.8337 67.3965 48.7388 67.2447 48.6777C67.1013 48.6166 66.9369 48.587 66.7556 48.587C66.452 48.587 66.1716 48.6925 65.9144 48.9054C65.6635 49.1183 65.4527 49.3861 65.2777 49.7128C65.1112 50.0396 64.9931 50.3791 64.9256 50.7353H65.3473C65.3937 50.5161 65.4527 50.3074 65.5286 50.1092C65.6108 49.9131 65.7247 49.7487 65.8701 49.6201C66.0219 49.4915 66.2117 49.4303 66.4394 49.4388C66.568 49.4388 66.6818 49.462 66.7809 49.5062C66.88 49.5526 66.977 49.6117 67.076 49.6875L67.0739 49.6897ZM71.4949 50.748L70.9489 53.9315H71.8365L72.4057 50.6342C72.4584 50.2694 72.4394 49.9321 72.3488 49.6222C72.2666 49.3123 72.1105 49.0614 71.8828 48.8717C71.6636 48.6819 71.36 48.587 70.9742 48.587C70.6263 48.587 70.3185 48.6672 70.0529 48.8253C69.7872 48.9771 69.5574 49.1963 69.3593 49.4852L69.4837 48.7009H68.5855L67.6769 53.9293H68.5855L69.1548 50.7016C69.1927 50.4592 69.2792 50.2441 69.4162 50.0544C69.5596 49.8646 69.7388 49.7171 69.9496 49.6117C70.1688 49.4978 70.4092 49.4409 70.6664 49.4409C70.9236 49.4409 71.107 49.502 71.2356 49.6222C71.3642 49.7445 71.4485 49.9026 71.4865 50.0987C71.5244 50.2947 71.5287 50.5119 71.497 50.7459L71.4949 50.748ZM77.4697 52.3503L76.7318 52.7719C76.8309 52.9764 76.9743 53.1767 77.164 53.3749C77.3538 53.5709 77.5857 53.7354 77.8576 53.864C78.138 53.9863 78.4522 54.0453 78.8021 54.0453C79.1521 54.0453 79.4725 53.9736 79.7466 53.8303C80.0186 53.6785 80.2315 53.4782 80.3833 53.2273C80.5414 52.9764 80.6215 52.7002 80.6215 52.3966C80.6215 52.0931 80.5541 51.8359 80.417 51.6461C80.2884 51.45 80.1134 51.2856 79.8942 51.157C79.6749 51.0284 79.4367 50.9061 79.1774 50.7923C79.0108 50.7164 78.8548 50.6405 78.7115 50.5646C78.5744 50.4887 78.4648 50.4022 78.3826 50.3032C78.3004 50.1977 78.2582 50.0755 78.2582 49.9384C78.2582 49.7634 78.3257 49.6243 78.4627 49.5168C78.6061 49.4114 78.7958 49.3587 79.0319 49.3587C79.268 49.3587 79.4936 49.4261 79.6918 49.5632C79.8963 49.6918 80.0713 49.8541 80.2146 50.0523L80.8851 49.5969C80.727 49.3081 80.4908 49.0698 80.1809 48.8801C79.871 48.684 79.5063 48.5849 79.0888 48.5849C78.8084 48.5849 78.5365 48.6376 78.2708 48.7431C78.0136 48.8485 77.8007 49.0129 77.6341 49.2322C77.4676 49.4451 77.3833 49.7171 77.3833 50.0502C77.3833 50.339 77.4507 50.5772 77.5878 50.767C77.7248 50.9483 77.8956 51.1001 78.1001 51.2224C78.3046 51.3362 78.5049 51.4311 78.703 51.507C78.8612 51.5744 79.0214 51.6545 79.1795 51.7452C79.3376 51.8274 79.4704 51.9307 79.578 52.053C79.6834 52.1753 79.7361 52.3229 79.7361 52.4957C79.7361 52.7002 79.656 52.8752 79.4978 53.0186C79.3397 53.1556 79.131 53.2231 78.8717 53.2231C78.6588 53.2231 78.4669 53.1851 78.2919 53.1092C78.1169 53.027 77.963 52.9195 77.826 52.7909C77.6974 52.6539 77.5793 52.5063 77.4739 52.3482L77.4697 52.3503ZM82.7867 45.0642L81.2856 53.9315H82.1732L83.708 45.0642H82.7867ZM84.9118 48.7009L82.3651 50.826L84.2751 53.9293H85.3546L83.4339 50.9272L86.0714 48.6988H84.9118V48.7009ZM87.4438 46.542C87.4438 46.7086 87.505 46.852 87.6251 46.9742C87.7474 47.0965 87.8908 47.1555 88.0573 47.1555C88.2239 47.1555 88.3799 47.0944 88.5001 46.9742C88.6223 46.852 88.6814 46.7086 88.6814 46.542C88.6814 46.3755 88.6202 46.2195 88.5001 46.0993C88.3799 45.977 88.2302 45.918 88.0573 45.918C87.8845 45.918 87.7474 45.9791 87.6251 46.0993C87.505 46.2216 87.4438 46.3692 87.4438 46.542ZM87.2288 48.7009L86.3644 53.9293H87.2625L88.1501 48.7009H87.2288ZM90.5598 45.0642L89.0588 53.9315H89.9337L91.4685 45.0642H90.5598ZM93.0897 45.0642L91.5886 53.9315H92.4636L93.9984 45.0642H93.0897ZM94.6899 52.3503L93.952 52.7719C94.0511 52.9764 94.1944 53.1767 94.3842 53.3749C94.5739 53.5709 94.8058 53.7354 95.0778 53.864C95.3582 53.9863 95.6723 54.0453 96.0223 54.0453C96.3723 54.0453 96.6927 53.9736 96.9668 53.8303C97.2388 53.6785 97.4517 53.4782 97.6035 53.2273C97.7616 52.9764 97.8417 52.7002 97.8417 52.3966C97.8417 52.0931 97.7743 51.8359 97.6372 51.6461C97.5086 51.45 97.3336 51.2856 97.1144 51.157C96.8951 51.0284 96.6569 50.9061 96.3976 50.7923C96.231 50.7164 96.075 50.6405 95.9316 50.5646C95.7946 50.4887 95.685 50.4022 95.6028 50.3032C95.5205 50.1977 95.4784 50.0755 95.4784 49.9384C95.4784 49.7634 95.5458 49.6243 95.6829 49.5168C95.8262 49.4114 96.016 49.3587 96.2521 49.3587C96.4882 49.3587 96.7138 49.4261 96.912 49.5632C97.1165 49.6918 97.2915 49.8541 97.4348 50.0523L98.1052 49.5969C97.9471 49.3081 97.711 49.0698 97.4011 48.8801C97.0912 48.684 96.7265 48.5849 96.309 48.5849C96.0286 48.5849 95.7567 48.6376 95.491 48.7431C95.2338 48.8485 95.0209 49.0129 94.8543 49.2322C94.6878 49.4451 94.6034 49.7171 94.6034 50.0502C94.6034 50.339 94.6709 50.5772 94.8079 50.767C94.945 50.9483 95.1157 51.1001 95.3203 51.2224C95.5247 51.3362 95.725 51.4311 95.9232 51.507C96.0813 51.5744 96.2416 51.6545 96.3997 51.7452C96.5578 51.8274 96.6906 51.9307 96.7981 52.053C96.9035 52.1753 96.9563 52.3229 96.9563 52.4957C96.9563 52.7002 96.8761 52.8752 96.718 53.0186C96.5599 53.1556 96.3512 53.2231 96.0919 53.2231C95.8789 53.2231 95.6871 53.1851 95.5121 53.1092C95.3371 53.027 95.1832 52.9195 95.0462 52.7909C94.9176 52.6539 94.7995 52.5063 94.6941 52.3482L94.6899 52.3503ZM102.117 48.7009L101.959 49.5526H104.516L104.664 48.7009H102.117ZM103.22 46.8815L102.037 53.9293H102.912L104.139 46.8815H103.218H103.22ZM107.044 45.0642H106.146L104.622 53.9315H105.52L107.044 45.0642ZM108.431 50.748L107.885 53.9315H108.773L109.342 50.6342C109.389 50.2483 109.37 49.9026 109.285 49.599C109.203 49.2891 109.047 49.0424 108.819 48.8611C108.592 48.6798 108.288 48.5892 107.911 48.5892C107.533 48.5892 107.192 48.6925 106.888 48.897C106.593 49.093 106.351 49.3544 106.161 49.6812C105.971 50.008 105.838 50.3601 105.762 50.7375H106.07C106.131 50.5034 106.228 50.2863 106.365 50.0902C106.509 49.8942 106.684 49.7339 106.888 49.6138C107.101 49.4915 107.339 49.4346 107.605 49.443C107.856 49.4514 108.046 49.5147 108.174 49.637C108.303 49.7508 108.387 49.9068 108.425 50.1029C108.463 50.2926 108.467 50.5077 108.436 50.7501L108.431 50.748ZM115.159 48.7009L114.284 53.9293H115.115L116.023 48.7009H115.159ZM110.407 51.3151C110.339 51.8084 110.379 52.2617 110.531 52.6792C110.683 53.0882 110.926 53.417 111.259 53.6679C111.6 53.9104 112.015 54.0326 112.509 54.0326C112.857 54.0326 113.175 53.9652 113.464 53.8281C113.759 53.6848 114.016 53.4866 114.238 53.2378C114.457 52.987 114.638 52.7002 114.784 52.3735C114.927 52.0404 115.026 51.6883 115.079 51.3172C115.125 50.9609 115.125 50.6236 115.079 50.3053C115.041 49.9785 114.954 49.6875 114.817 49.4303C114.68 49.1731 114.491 48.9686 114.248 48.8168C114.014 48.665 113.721 48.5892 113.373 48.5892C112.88 48.5807 112.422 48.6988 111.999 48.9412C111.581 49.1837 111.229 49.5126 110.942 49.93C110.662 50.339 110.483 50.8007 110.409 51.3172L110.407 51.3151ZM111.316 51.3151C111.377 50.9588 111.505 50.6363 111.701 50.3495C111.906 50.0607 112.157 49.8372 112.452 49.6791C112.747 49.5126 113.061 49.4324 113.396 49.4409C113.624 49.4493 113.82 49.5062 113.987 49.6117C114.162 49.7107 114.305 49.8457 114.419 50.0207C114.533 50.1956 114.613 50.3917 114.657 50.611C114.703 50.8302 114.706 51.0663 114.668 51.3151C114.621 51.5723 114.535 51.8148 114.406 52.0425C114.284 52.2702 114.134 52.4704 113.951 52.6454C113.77 52.812 113.567 52.9448 113.348 53.0439C113.135 53.1345 112.916 53.1809 112.688 53.1809C112.355 53.1809 112.075 53.0987 111.847 52.93C111.628 52.7551 111.472 52.5295 111.381 52.247C111.29 51.9581 111.267 51.6482 111.313 51.3151H111.316ZM116.837 48.7009L116.679 49.5526H119.236L119.384 48.7009H116.837ZM117.94 46.8815L116.757 53.9293H117.632L118.859 46.8815H117.938H117.94ZM130.288 50.6342C130.334 50.2694 130.321 49.9321 130.254 49.6222C130.193 49.3123 130.058 49.0614 129.845 48.8717C129.64 48.6819 129.349 48.587 128.97 48.587C128.591 48.587 128.27 48.6777 127.981 48.859C127.692 49.0403 127.448 49.287 127.243 49.5969C127.197 49.3924 127.119 49.2132 127.005 49.0635C126.9 48.9117 126.754 48.7936 126.573 48.7114C126.398 48.6292 126.187 48.587 125.936 48.587C125.723 48.587 125.527 48.6208 125.346 48.6903C125.165 48.7578 124.998 48.8569 124.846 48.9855C124.703 49.1078 124.57 49.2554 124.448 49.4282L124.562 48.7009H123.664L122.755 53.9293H123.664L124.233 50.689C124.271 50.4465 124.351 50.2336 124.471 50.0523C124.6 49.8625 124.762 49.715 124.96 49.6095C125.165 49.5041 125.392 49.4514 125.643 49.4514C125.894 49.4514 126.061 49.5126 126.166 49.6327C126.28 49.7466 126.347 49.9026 126.371 50.0987C126.394 50.2947 126.39 50.5119 126.36 50.7459L125.814 53.9293H126.689L127.245 50.7227C127.283 50.4802 127.364 50.2652 127.484 50.0755C127.612 49.8857 127.775 49.7339 127.973 49.6201C128.177 49.5062 128.409 49.4493 128.666 49.4493C128.909 49.4493 129.084 49.5105 129.189 49.6306C129.303 49.7445 129.371 49.9005 129.394 50.0965C129.423 50.2926 129.423 50.5098 129.394 50.7438L128.825 53.9272H129.733L130.29 50.6299L130.288 50.6342ZM136.119 48.7009L135.244 53.9293H136.075L136.983 48.7009H136.119ZM131.367 51.3151C131.3 51.8084 131.34 52.2617 131.491 52.6792C131.643 53.0882 131.886 53.417 132.219 53.6679C132.56 53.9104 132.976 54.0326 133.469 54.0326C133.817 54.0326 134.135 53.9652 134.424 53.8281C134.719 53.6848 134.976 53.4866 135.198 53.2378C135.417 52.987 135.598 52.7002 135.744 52.3735C135.887 52.0404 135.986 51.6883 136.039 51.3172C136.085 50.9609 136.085 50.6236 136.039 50.3053C136.001 49.9785 135.915 49.6875 135.778 49.4303C135.641 49.1731 135.451 48.9686 135.208 48.8168C134.974 48.665 134.681 48.5892 134.333 48.5892C133.84 48.5807 133.383 48.6988 132.959 48.9412C132.541 49.1837 132.189 49.5126 131.903 49.93C131.622 50.339 131.443 50.8007 131.369 51.3172L131.367 51.3151ZM132.276 51.3151C132.337 50.9588 132.465 50.6363 132.662 50.3495C132.866 50.0607 133.117 49.8372 133.412 49.6791C133.707 49.5126 134.021 49.4324 134.357 49.4409C134.584 49.4493 134.78 49.5062 134.947 49.6117C135.122 49.7107 135.265 49.8457 135.379 50.0207C135.493 50.1956 135.573 50.3917 135.617 50.611C135.664 50.8302 135.666 51.0663 135.628 51.3151C135.581 51.5723 135.495 51.8148 135.366 52.0425C135.244 52.2702 135.094 52.4704 134.911 52.6454C134.73 52.812 134.527 52.9448 134.308 53.0439C134.095 53.1345 133.876 53.1809 133.648 53.1809C133.315 53.1809 133.035 53.0987 132.807 52.93C132.588 52.7551 132.432 52.5295 132.341 52.247C132.25 51.9581 132.227 51.6482 132.274 51.3151H132.276ZM137.797 48.7009L137.639 49.5526H140.196L140.344 48.7009H137.797ZM138.9 46.8815L137.717 53.9293H138.592L139.819 46.8815H138.898H138.9ZM140.452 48.7009L140.293 49.5526H142.851L142.998 48.7009H140.452ZM141.554 46.8815L140.371 53.9293H141.246L142.473 46.8815H141.552H141.554ZM145.151 54.0432C145.712 54.0432 146.205 53.9188 146.629 53.6679C147.052 53.417 147.402 53.0987 147.674 52.7129L146.958 52.247C146.768 52.5189 146.525 52.7466 146.23 52.93C145.941 53.105 145.621 53.1915 145.265 53.1915C144.946 53.1915 144.685 53.1261 144.48 52.9975C144.276 52.8605 144.124 52.6707 144.025 52.4283C143.926 52.1858 143.877 51.9096 143.877 51.5976C143.877 51.2856 143.924 51.0221 144.014 50.7564C144.114 50.4845 144.248 50.2441 144.423 50.0396C144.598 49.8351 144.803 49.6749 145.037 49.5632C145.279 49.4409 145.545 49.3819 145.832 49.3819C146.118 49.3819 146.344 49.4346 146.525 49.54C146.707 49.6454 146.844 49.7972 146.934 49.9954C147.033 50.1851 147.082 50.417 147.082 50.689C147.082 50.7944 147.067 50.9019 147.036 51.0073C147.006 51.1064 146.97 51.2013 146.932 51.2919L147.284 50.7691H143.534V51.5428H147.887C147.917 51.4817 147.944 51.3847 147.967 51.2477C147.997 51.1106 148.014 50.9862 148.014 50.8724C148.014 50.3727 147.927 49.9553 147.752 49.6222C147.577 49.2807 147.331 49.0235 147.015 48.8485C146.705 48.6735 146.329 48.587 145.889 48.587C145.471 48.587 145.085 48.6693 144.729 48.8379C144.381 49.0045 144.074 49.2322 143.808 49.521C143.551 49.8014 143.346 50.1282 143.194 50.4992C143.051 50.864 142.979 51.2498 142.979 51.6588C142.979 52.1584 143.07 52.5864 143.251 52.9427C143.433 53.299 143.688 53.5709 144.012 53.7607C144.339 53.9504 144.717 54.0453 145.149 54.0453L145.151 54.0432ZM150.436 48.7009H149.538L148.629 53.9293H149.538L150.436 48.7009ZM151.813 49.6897L152.416 48.9623C152.279 48.8337 152.135 48.7388 151.984 48.6777C151.84 48.6166 151.676 48.587 151.495 48.587C151.191 48.587 150.911 48.6925 150.653 48.9054C150.402 49.1183 150.192 49.3861 150.017 49.7128C149.85 50.0396 149.732 50.3791 149.665 50.7353H150.086C150.133 50.5161 150.192 50.3074 150.268 50.1092C150.352 49.9131 150.464 49.7487 150.609 49.6201C150.761 49.4915 150.951 49.4303 151.178 49.4388C151.307 49.4388 151.421 49.462 151.52 49.5062C151.619 49.5505 151.716 49.6117 151.815 49.6875L151.813 49.6897Z" fill="#2B2B2B"/>
</g>
<defs>
<clipPath id="clip0_1331_1987">
<rect width="210.825" height="55" fill="white" transform="translate(0 0.5)"/>
</clipPath>
</defs>
</svg>
