<svg width="58" height="98" viewBox="0 0 58 98" fill="none" xmlns="http://www.w3.org/2000/svg">
<path d="M46.1932 46.1676C46.1932 46.1676 51.9783 35.8935 43.1241 0C43.1241 0 46.3134 26.8028 42.061 40.0257C42.061 40.0257 31.4338 44.8679 19.274 30.225C19.274 30.225 31.4338 49.4696 46.1932 46.1639V46.1676Z" fill="#E8F6F1"/>
<path d="M53.6311 38.8466C56.0428 38.8466 57.9999 36.8894 57.9999 34.4777C57.9999 32.066 56.0428 30.1089 53.6311 30.1089C51.2194 30.1089 49.2623 32.066 49.2623 34.4777C49.2623 36.8894 51.2194 38.8466 53.6311 38.8466Z" fill="#E8F6F1"/>
<path d="M3.56798 76.1558C3.56798 76.1558 23.5226 79.5818 38.6351 63.8757C30.3708 76.0356 17.7376 90.0887 0.615356 98C0.615356 98 46.3097 83.7139 50.9152 41.7949C50.9152 41.7949 39.9348 66.9448 3.56798 76.1558Z" fill="#E8F6F1"/>
</svg>
